<svg xmlns="http://www.w3.org/2000/svg" viewBox="0 0 32 32" width="32" height="32">
  <defs>
    <style>
      .bone-main { fill: #E6D3A3; stroke: #B8860B; stroke-width: 0.8; stroke-linejoin: round; }
      .bone-highlight { fill: #F5E6B8; opacity: 0.8; }
      .bone-shadow { fill: #D4C28A; opacity: 0.6; }
    </style>
  </defs>

  <!-- Main bone shape -->
  <path class="bone-main" d="M8 16 L24 16
                             M6 12 C4 12 2 14 2 16 C2 18 4 20 6 20
                             M6 12 C4 12 2 10 2 8 C2 6 4 4 6 4 C8 4 10 6 10 8 C10 9 9.5 10 8.5 10.5
                             M6 20 C4 20 2 22 2 24 C2 26 4 28 6 28 C8 28 10 26 10 24 C10 23 9.5 22 8.5 21.5
                             M26 12 C28 12 30 14 30 16 C30 18 28 20 26 20
                             M26 12 C28 12 30 10 30 8 C30 6 28 4 26 4 C24 4 22 6 22 8 C22 9 22.5 10 23.5 10.5
                             M26 20 C28 20 30 22 30 24 C30 26 28 28 26 28 C24 28 22 26 22 24 C22 23 22.5 22 23.5 21.5"/>

  <!-- Simplified bone using basic shapes -->
  <g>
    <!-- Left bone end -->
    <circle cx="6" cy="8" r="4" class="bone-main"/>
    <circle cx="6" cy="24" r="4" class="bone-main"/>

    <!-- Right bone end -->
    <circle cx="26" cy="8" r="4" class="bone-main"/>
    <circle cx="26" cy="24" r="4" class="bone-main"/>

    <!-- Bone shaft -->
    <rect x="8" y="13" width="16" height="6" rx="3" class="bone-main"/>

    <!-- Highlights for 3D effect -->
    <ellipse cx="6" cy="7" rx="2.5" ry="2" class="bone-highlight"/>
    <ellipse cx="26" cy="7" rx="2.5" ry="2" class="bone-highlight"/>
    <ellipse cx="16" cy="14.5" rx="6" ry="1.5" class="bone-highlight"/>

    <!-- Subtle shadows -->
    <ellipse cx="6" cy="25" rx="2.5" ry="1.5" class="bone-shadow"/>
    <ellipse cx="26" cy="25" rx="2.5" ry="1.5" class="bone-shadow"/>
  </g>
</svg>
